<svg width="100" height="100" viewBox="0 0 100 100" fill="red" xmlns="http://www.w3.org/2000/svg">
<path d="M47.5514 100V92.3614C36.3746 91.3307 27.186 87.2151 19.9854 80.0146C12.7849 72.814 8.66926 63.6254 7.63855 52.4486H0V47.4678H7.63855C8.66926 36.291 12.7849 27.1163 19.9854 19.9436C27.186 12.7709 36.3746 8.66926 47.5514 7.63855V0H52.5322V7.63855C63.709 8.66926 72.8837 12.7709 80.0564 19.9436C87.2291 27.1163 91.3307 36.291 92.3614 47.4678H100V52.4486H92.3614C91.3307 63.6254 87.2291 72.814 80.0564 80.0146C72.8837 87.2151 63.709 91.3307 52.5322 92.3614V100H47.5514ZM50.085 87.4427C60.4541 87.4427 69.2727 83.7803 76.5407 76.4557C83.8087 69.1301 87.4427 60.2832 87.4427 49.915C87.4427 39.5459 83.8087 30.7273 76.5407 23.4593C69.2727 16.1913 60.4541 12.5573 50.085 12.5573C39.7168 12.5573 30.8699 16.1913 23.5443 23.4593C16.2197 30.7273 12.5573 39.5459 12.5573 49.915C12.5573 60.2832 16.2197 69.1301 23.5443 76.4557C30.8699 83.7803 39.7168 87.4427 50.085 87.4427ZM50 65.6913C45.6424 65.6913 41.9378 64.1655 38.8862 61.1138C35.8345 58.0622 34.3087 54.3576 34.3087 50C34.3087 45.6424 35.8345 41.9378 38.8862 38.8862C41.9378 35.8345 45.6424 34.3087 50 34.3087C54.3576 34.3087 58.0622 35.8345 61.1138 38.8862C64.1655 41.9378 65.6913 45.6424 65.6913 50C65.6913 54.3576 64.1655 58.0622 61.1138 61.1138C58.0622 64.1655 54.3576 65.6913 50 65.6913ZM49.9919 60.7091C52.9545 60.7091 55.4814 59.6667 57.5724 57.5819C59.6635 55.4962 60.7091 52.9716 60.7091 50.0081C60.7091 47.0455 59.6667 44.5186 57.5819 42.4276C55.4962 40.3365 52.9716 39.2909 50.0081 39.2909C47.0455 39.2909 44.5186 40.3333 42.4276 42.4181C40.3365 44.5038 39.2909 47.0284 39.2909 49.9919C39.2909 52.9545 40.3333 55.4814 42.4181 57.5724C44.5038 59.6635 47.0284 60.7091 49.9919 60.7091Z" fill="currentColor"/>
</svg>
