<svg width="100" height="100" viewBox="0 0 100 100" fill="none" xmlns="http://www.w3.org/2000/svg">
<path d="M96.677 100L0 2.81479L2.75428 0L99.5099 97.2457L96.677 100ZM24.1399 24.2125L28.0644 28.252V81.4643H77.8157L81.6615 85.868V89.3677C81.6736 91.2628 81.006 92.8872 79.6588 94.2409C78.3107 95.5947 76.677 96.2716 74.7577 96.2716H31.0438C29.1616 96.2716 27.5404 95.5915 26.1802 94.2313C24.82 92.8711 24.1399 91.2499 24.1399 89.3677V24.2125ZM28.0644 85.39V89.3677C28.0644 90.2366 28.3439 90.9502 28.903 91.5084C29.4613 92.0667 30.1749 92.3459 31.0438 92.3459H74.7758C75.6447 92.3459 76.3583 92.0667 76.9166 91.5084C77.4757 90.9502 77.7552 90.2366 77.7552 89.3677V85.39H28.0644ZM28.0644 13.0102V11.0244H77.7552V7.04665C77.7552 6.17777 77.4757 5.46419 76.9166 4.90591C76.3583 4.34763 75.6447 4.06849 74.7758 4.06849H31.0438C30.1749 4.06849 29.4613 4.34763 28.903 4.90591C28.3439 5.46419 28.0644 6.17777 28.0644 7.04665V13.0102L23.9693 8.94173V7.63115C23.8386 5.58117 24.4751 3.82082 25.8789 2.35009C27.2826 0.87856 29.0043 0.142796 31.0438 0.142796H74.7976C76.6943 0.142796 78.3155 0.817649 79.6612 2.16736C81.0068 3.51707 81.6797 5.14673 81.6797 7.05633V22.344H77.7552V14.9501H29.9111L28.0644 13.0102ZM80.7999 60.4611L78.1594 57.6354C79.5656 56.4906 80.6962 55.1038 81.5514 53.4749C82.4066 51.8461 82.8342 50.0615 82.8342 48.1213C82.8342 46.2213 82.4211 44.4529 81.595 42.816C80.768 41.1783 79.6293 39.7398 78.1787 38.5006L80.8362 35.7379C82.6337 37.3159 84.0705 39.1618 85.1467 41.2755C86.2221 43.39 86.7598 45.651 86.7598 48.0583C86.7598 50.4649 86.2262 52.7307 85.1588 54.8557C84.0923 56.9807 82.6393 58.8492 80.7999 60.4611ZM90.527 70.089L87.7909 67.3105C90.3217 64.7643 92.2704 61.8249 93.6371 58.4922C95.0037 55.1602 95.6871 51.7037 95.6871 48.1225C95.6871 44.5421 94.9884 41.0895 93.5911 37.7649C92.1946 34.4394 90.1765 31.5447 87.5368 29.0809L90.4278 26.2068C93.4289 29.1354 95.7101 32.4883 97.2711 36.2655C98.8314 40.0428 99.6115 44.0173 99.6115 48.189C99.6115 52.3043 98.8351 56.2566 97.282 60.046C95.7282 63.8353 93.4765 67.183 90.527 70.089Z" fill="currentColor"/>
</svg>
