<svg width="79" height="100" viewBox="0 0 79 100" fill="none" xmlns="http://www.w3.org/2000/svg">
<path d="M58.9418 62.7474L56.1949 59.8079C57.6577 58.617 58.8339 57.1743 59.7236 55.4799C60.6132 53.7854 61.058 51.929 61.058 49.9106C61.058 47.9342 60.6283 46.0946 59.7689 44.3917C58.9086 42.688 57.724 41.1917 56.2151 39.9026L58.9796 37.0286C60.8494 38.6701 62.3441 40.5903 63.4637 42.7892C64.5824 44.9888 65.1418 47.3408 65.1418 49.8452C65.1418 52.3486 64.5866 54.7057 63.4763 56.9163C62.3668 59.1268 60.8553 61.0706 58.9418 62.7474ZM69.0606 72.763L66.2143 69.8726C68.847 67.2239 70.8742 64.1661 72.2959 60.6992C73.7176 57.2331 74.4285 53.6373 74.4285 49.9119C74.4285 46.1873 73.7017 42.5957 72.2481 39.1372C70.7954 35.6778 68.696 32.6666 65.95 30.1035L68.9574 27.1137C72.0794 30.1601 74.4524 33.6481 76.0763 37.5774C77.6995 41.5068 78.511 45.6414 78.511 49.9811C78.511 54.2621 77.7032 58.3736 76.0877 62.3156C74.4713 66.2575 72.1289 69.74 69.0606 72.763ZM7.18188 100C5.22391 100 3.53744 99.2925 2.12246 97.8775C0.707488 96.4626 0 94.7761 0 92.8181V7.18188C0 5.22391 0.707488 3.53744 2.12246 2.12246C3.53744 0.707486 5.22391 0 7.18188 0H52.6751C54.6331 0 56.3196 0.707486 57.7345 2.12246C59.1495 3.53744 59.857 5.22391 59.857 7.18188V23.0953H55.7745V15.4036H4.08253V84.5964H55.7745V76.9047H59.857V92.8181C59.857 94.7761 59.1495 96.4626 57.7345 97.8775C56.3196 99.2925 54.6331 100 52.6751 100H7.18188ZM4.08253 88.6802V92.8181C4.08253 93.5928 4.40523 94.3028 5.05061 94.9481C5.69683 95.5935 6.40726 95.9162 7.18188 95.9162H52.6751C53.4497 95.9162 54.1602 95.5935 54.8064 94.9481C55.4518 94.3028 55.7745 93.5928 55.7745 92.8181V88.6802H4.08253ZM4.08253 11.3198H55.7745V7.18188C55.7745 6.40725 55.4518 5.69725 54.8064 5.05187C54.1602 4.40648 53.4497 4.08379 52.6751 4.08379H7.18188C6.40726 4.08379 5.69683 4.40648 5.05061 5.05187C4.40523 5.69725 4.08253 6.40725 4.08253 7.18188V11.3198Z" fill="currentColor"/>
</svg>
