<svg width="124" height="72" viewBox="0 0 124 72" fill="none" xmlns="http://www.w3.org/2000/svg">
<path d="M29.935 28.0373C29.7891 27.6493 29.7405 27.3239 30.0809 26.9609C37.7777 18.6504 45.4744 10.3274 53.159 1.99191C53.5481 1.56637 53.8886 1.50379 54.4357 1.65398C64.9655 4.39494 75.5075 7.11087 86.0495 9.80176C86.7547 9.97699 86.9858 10.3525 87.0466 10.9908C87.5208 12.743 87.9828 14.4827 88.4692 16.2349C88.761 17.2737 89.0771 18.3 89.3811 19.3388C89.369 19.4014 89.369 19.464 89.369 19.5265C90.0742 22.1423 90.7916 24.7456 91.4968 27.3614C91.8251 28.6005 92.1412 29.8396 92.4695 31.0661C90.7794 31.8671 89.0893 32.6681 87.3992 33.4817C83.0948 35.5342 78.7905 37.5993 74.4983 39.6644C71.6409 41.0412 68.8078 42.4304 65.9504 43.8072C65.5005 44.045 65.0142 44.2202 64.5157 44.3328C63.2025 44.5706 61.8893 44.7333 60.5639 44.9211C58.6185 45.1964 56.673 45.4718 54.7275 45.7346C52.7213 46.01 50.7029 46.2603 48.6966 46.5356C46.7268 46.811 44.7692 47.1114 42.7994 47.3867C40.3433 47.7246 37.8871 48.05 35.431 48.388C35.431 48.3004 35.431 48.2253 35.4188 48.1376C34.6649 45.3591 33.9111 42.5806 33.145 39.8021C32.8411 38.7258 32.5128 37.6494 32.1966 36.5731C32.1966 36.4229 32.1845 36.2852 32.148 36.135C31.4063 33.4316 30.6767 30.7282 29.935 28.0373Z" stroke="black" stroke-width="2.5" stroke-miterlimit="10"/>
<path d="M37.8467 56.8767L42.1579 56.2754C44.8175 55.8996 47.477 55.5238 50.1366 55.1605C52.4562 54.8473 54.7636 54.5467 57.0831 54.2335C59.0141 53.9704 60.945 53.6948 62.8638 53.4192C64.1996 53.2313 65.5598 53.0935 66.8714 52.8179C67.6 52.6676 68.2801 52.3043 68.9602 51.9786C71.0976 50.9639 73.2107 49.9242 75.348 48.8969C79.3192 46.9928 83.2782 45.1013 87.2494 43.1971C89.3746 42.1699 91.4998 41.1302 93.6372 40.1155C94.0258 39.9276 94.4266 39.7647 94.8152 39.5894C95.2281 41.0675 95.6653 42.5457 96.0418 44.0365C96.1025 44.2494 95.9325 44.6002 95.7625 44.7881C93.3943 47.4062 91.0019 50.0119 88.6095 52.6175C83.3146 58.3549 78.0198 64.0797 72.7249 69.8046C72.397 70.1553 72.1055 70.2931 71.6076 70.1553C61.0057 67.3869 50.3917 64.6434 39.7898 61.9126C39.3161 61.7873 39.1097 61.5493 38.9882 61.0983C38.6361 59.6702 38.2353 58.2797 37.8467 56.8767Z" stroke="black" stroke-width="2.5" stroke-miterlimit="10"/>
<path d="M89.3549 19.3519C89.0511 18.3256 88.7352 17.2868 88.4436 16.2479C87.9576 14.5082 87.4959 12.756 87.022 11.0037C90.2176 10.5531 93.4254 10.1151 96.621 9.66447C100.205 9.16383 103.802 8.71325 107.386 8.17506C110.424 7.71196 113.486 7.5117 116.56 7.57429C117.071 7.5868 117.265 7.74951 117.399 8.25015C118.917 13.9325 120.473 19.6148 121.992 25.2971C122.028 25.4473 121.943 25.7602 121.809 25.8353C119.379 27.3622 117.034 29.0269 114.373 30.1533C112.988 30.7416 111.651 31.455 110.29 32.1058C105.673 34.3337 101.068 36.5491 96.4509 38.7769C95.8798 39.0523 95.3209 39.3527 94.7498 39.6405C94.361 39.8158 93.96 39.9785 93.5712 40.1662C91.4448 41.1925 89.3184 42.2314 87.1799 43.2452C83.2188 45.1476 79.2456 47.0501 75.2723 48.94C73.1459 49.9663 71.0196 51.0052 68.8811 52.019C68.2006 52.3444 67.508 52.7074 66.7912 52.8576C65.4667 53.1329 64.118 53.2706 62.7814 53.4583C60.8495 53.7337 58.9175 53.9965 56.9977 54.2719C54.677 54.5848 52.3683 54.8852 50.0476 55.1981C47.3987 55.561 44.7377 55.9365 42.0767 56.312L37.7633 56.9128C34.7621 57.3133 31.773 57.7263 28.7718 58.1268C25.1631 58.615 21.5543 59.0906 17.9456 59.6288C14.7864 60.1044 11.6272 60.4924 8.41946 60.4298C7.89699 60.4173 7.36236 60.4924 6.83988 60.5299C5.23599 54.6599 3.66856 48.8649 2.06468 43.07C1.90672 42.4817 2.02822 42.1938 2.53855 41.8559C5.78277 39.7156 9.20926 37.9509 12.7208 36.3488C14.677 35.4602 16.5968 34.4964 18.5288 33.5702C22.0889 31.868 25.6369 30.1533 29.1971 28.4511C29.4522 28.326 29.7074 28.1883 29.9626 28.0506C30.6916 30.7416 31.4328 33.4326 32.1618 36.1235C32.1861 36.2612 32.1983 36.4114 32.2104 36.5616L25.7098 39.6906C26.5604 42.8196 27.3988 45.8861 28.2129 48.965C28.3101 49.3155 28.468 49.3781 28.7839 49.328C31.0075 49.0026 33.2189 48.7022 35.4425 48.3893C37.8969 48.0514 40.3514 47.7385 42.8058 47.388C44.7742 47.1127 46.7304 46.8123 48.6988 46.5369C50.7037 46.2616 52.7207 46.0112 54.7256 45.7359C56.6697 45.473 58.6138 45.1977 60.5579 44.9223C61.8701 44.7346 63.1946 44.5719 64.5068 44.3341C65.005 44.2214 65.491 44.0462 65.9406 43.8084C68.796 42.4316 71.6393 41.0423 74.4825 39.6656C78.7717 37.6004 83.073 35.5353 87.3743 33.4826C89.0633 32.6691 90.7401 31.868 92.4412 31.067C94.1666 30.2409 95.8919 29.4024 97.6416 28.6139C98.1884 28.3635 98.2492 28.0631 98.1034 27.5375C97.3257 24.7589 96.5602 21.9803 95.8312 19.1892C95.6975 18.6886 95.4545 18.5885 95.0414 18.651C94.3731 18.7512 93.7048 18.8638 93.0244 18.9389C91.7972 19.1016 90.5821 19.2268 89.3549 19.3519Z" stroke="black" stroke-width="2.5" stroke-miterlimit="10"/>
</svg>
