<svg width="101" height="101" viewBox="0 0 101 101" fill="none" xmlns="http://www.w3.org/2000/svg">
<path d="M45.706 40.1998C47.0787 40.1998 48.3035 39.6668 49.3805 38.6008C50.4575 37.5348 50.996 36.3149 50.996 34.9413C50.996 33.5687 50.447 32.3438 49.349 31.2668C48.2501 30.1899 47.0139 29.6514 45.6403 29.6514C44.2676 29.6514 43.0592 30.2004 42.0151 31.2983C40.97 32.3972 40.4475 33.6335 40.4475 35.0071C40.4475 36.3797 40.9805 37.5881 42.0466 38.6323C43.1126 39.6773 44.3324 40.1998 45.706 40.1998ZM96.8396 100.165C94.3863 100.165 90.0984 98.4136 83.9761 94.9107C77.8547 91.4078 71.2641 87.0898 64.2045 81.9568C62.0213 82.9736 59.7104 83.7224 57.2716 84.2034C54.8338 84.6844 52.3367 84.9249 49.7803 84.9249C40.0747 84.9249 31.8331 81.5375 25.0554 74.7626C18.2778 67.9867 14.889 59.7483 14.889 50.0473C14.889 47.4461 15.1276 44.9285 15.605 42.4943C16.0814 40.0602 16.8458 37.7337 17.8981 35.515C12.8418 28.5876 8.60827 22.1212 5.19754 16.1157C1.7859 10.1102 0.0800781 5.90725 0.0800781 3.50687C0.0800781 2.55219 0.3621 1.75359 0.926144 1.11105C1.49019 0.467605 2.1852 0.145874 3.01119 0.145874C4.93332 0.145874 8.35363 1.47157 13.2721 4.12294C18.1915 6.77522 23.2524 9.70587 28.4548 12.9149C27.7319 13.2982 27.0118 13.7112 26.2944 14.1539C25.5761 14.5974 24.8779 15.0469 24.1998 15.5024C20.9059 13.436 17.6658 11.5481 14.4796 9.83867C11.2934 8.13011 8.05929 6.5329 4.77725 5.04704C6.95311 9.74101 9.28869 14.2675 11.784 18.6265C14.2784 22.9855 17.0128 27.2944 19.9873 31.553C23.147 26.5496 27.3139 22.5246 32.4879 19.4781C37.662 16.4306 43.4261 14.9068 49.7803 14.9068C59.515 14.9068 67.8032 18.3276 74.6447 25.1692C81.4863 32.0107 84.907 40.2988 84.907 50.0336C84.907 56.3905 83.3938 62.1806 80.3673 67.404C77.3408 72.6282 73.3154 76.7737 68.291 79.8403C72.5716 82.9435 76.942 85.7678 81.4023 88.3133C85.8626 90.8579 90.4854 93.2295 95.2707 95.4282C93.73 92.1726 92.1036 88.9481 90.3914 85.7546C88.6792 82.562 86.8461 79.295 84.892 75.9536C85.3648 75.3649 85.8247 74.7014 86.272 73.963C86.7183 73.2247 87.1294 72.4872 87.5055 71.7507C90.6205 76.8088 93.495 81.8437 96.129 86.8553C98.7631 91.8678 100.08 95.3104 100.08 97.1833C100.08 97.9901 99.7821 98.6888 99.1861 99.2793C98.5892 99.8698 97.807 100.165 96.8396 100.165ZM59.3813 64.4208C60.3086 64.4208 61.1264 64.0772 61.8346 63.39C62.5429 62.7027 62.897 61.8954 62.897 60.9681C62.897 60.0408 62.5424 59.2231 61.8333 58.5148C61.1232 57.8066 60.299 57.4524 59.3608 57.4524C58.4235 57.4524 57.6171 57.807 56.9417 58.5162C56.2663 59.2262 55.9286 60.0504 55.9286 60.9887C55.9286 61.926 56.2722 62.7324 56.9595 63.4078C57.6468 64.0831 58.454 64.4208 59.3813 64.4208ZM66.3046 46.2017C67.1324 46.2017 67.8771 45.8904 68.5388 45.268C69.2005 44.6446 69.5314 43.9195 69.5314 43.0926C69.5314 42.2648 69.2083 41.52 68.5621 40.8583C67.915 40.1966 67.1734 39.8658 66.3374 39.8658C65.5005 39.8658 64.7676 40.1889 64.1387 40.835C63.5099 41.4821 63.1955 42.2237 63.1955 43.0597C63.1955 43.8967 63.5067 44.6296 64.1292 45.2584C64.7525 45.8873 65.4777 46.2017 66.3046 46.2017ZM59.9289 78.7465C52.3545 73.0202 45.1972 66.771 38.457 59.9988C31.7167 53.2267 25.9403 46.4696 21.1277 39.7275C20.4833 41.2015 20.0229 42.8115 19.7463 44.5575C19.4688 46.3034 19.3301 47.9837 19.3301 49.5983C19.2033 53.8587 20.0133 57.964 21.7602 61.9141C23.5071 65.8643 25.8705 69.2325 28.8504 72.019C31.7573 74.8228 35.1553 76.9895 39.0443 78.5192C42.9323 80.0489 47.0153 80.6864 51.2931 80.4317C52.6977 80.4317 54.137 80.2999 55.611 80.0361C57.085 79.7732 58.5243 79.3434 59.9289 78.7465ZM64.173 76.8407C69.0294 74.2761 72.959 70.6043 75.9618 65.8255C78.9645 61.0475 80.4659 55.7434 80.4659 49.9131C80.4659 41.4187 77.4659 34.2007 71.4658 28.2591C65.4649 22.3184 58.2213 19.348 49.7351 19.348C43.9057 19.348 38.629 20.8293 33.9049 23.7919C29.1817 26.7545 25.5378 30.6462 22.9731 35.4671C28.7514 43.3673 35.0996 50.7706 42.0178 57.677C48.9369 64.5833 56.322 70.9712 64.173 76.8407Z" fill="currentColor"/>
</svg>
