<svg width="100" height="101" viewBox="0 0 100 101" fill="none" xmlns="http://www.w3.org/2000/svg">
<path d="M49.3772 3.5C39.2031 3.5 29.6121 5.59604 21.193 9.30176C29.1916 3.75203 38.9041 0.5 49.3772 0.5C59.8502 0.5 69.5628 3.75203 77.5614 9.30175C69.1423 5.59604 59.5513 3.5 49.3772 3.5Z" fill="currentColor" stroke="currentColor"/>
<path d="M51 61.144C70.6372 61.144 87.6803 50.0455 96.2023 33.7828C98.0138 38.8983 99 44.405 99 50.144C99 77.2059 77.062 99.144 50 99.144C22.938 99.144 1 77.2059 1 50.144C1 43.5405 2.30569 37.2443 4.67232 31.4976C12.7517 48.9974 30.4563 61.144 51 61.144Z" fill="currentColor" stroke="currentColor" stroke-width="2"/>
<path d="M49 0L51.5981 37.5H46.4019L49 0Z" fill="currentColor"/>
</svg>
