<svg width="102" height="102" viewBox="0 0 102 102" fill="none" xmlns="http://www.w3.org/2000/svg">
<g filter="url(#filter0_f_27_111)">
<path d="M51.0001 2.25C77.9227 2.25 99.75 24.0759 99.75 51C99.75 77.9223 77.9227 99.75 51.0001 99.75C24.0763 99.75 2.25 77.9223 2.25 51C2.25 24.0759 24.0768 2.25 51.0001 2.25Z" stroke="black" stroke-width="2.5"/>
</g>
<path d="M61.2316 9.18424C80.0635 13.775 94.0427 30.7567 94.0427 51C94.0427 74.7697 74.7707 94.0417 50.9992 94.0417C27.228 94.0417 7.95775 74.7698 7.95728 51C7.95728 30.7631 21.9276 13.7857 40.7512 9.18727L40.6824 15.4506L40.6685 16.7144H41.9323H59.9792H61.2287L61.2292 15.4648L61.2316 9.18424Z" fill="white" stroke="black" stroke-width="2.5"/>
<path d="M81.82 51.6631H82.7252H86.2773V50.3428H82.7252H81.8199L81.5376 49.4827C80.8977 47.5335 79.0616 46.1268 76.9034 46.1268C74.7443 46.1268 72.9089 47.5336 72.2693 49.4826L71.987 50.3428H71.0816H67.5295V51.6631H71.0816H71.9869L72.2692 52.5232C72.9089 54.4718 74.7444 55.879 76.9033 55.8791L81.82 51.6631ZM81.82 51.6631L81.5376 52.5231M81.82 51.6631L81.5376 52.5231M81.5376 52.5231C80.8978 54.4717 79.0615 55.8789 76.9034 55.8791L81.5376 52.5231Z" stroke="black" stroke-width="2.5"/>
<path d="M63.1709 62.248L65.6826 64.7596L66.3227 65.3998L67.1306 64.9912C68.9611 64.0653 71.2537 64.3684 72.7804 65.8951C74.3065 67.4211 74.6101 69.7141 73.6843 71.5448L73.2757 72.3527L73.9159 72.9928L76.4275 75.5044L75.4939 76.438L72.9822 73.9264L72.3422 73.2863L71.5344 73.6947C69.704 74.6201 67.4105 74.3168 65.8844 72.7909C64.3578 71.2644 64.0549 68.9714 64.9805 67.1412L65.3891 66.3333L64.7489 65.6932L62.2373 63.1816L63.1709 62.248Z" stroke="black" stroke-width="2.5"/>
<path d="M50.3323 81.8595V82.7647V86.3167H51.6526V82.7647V81.8594L52.5127 81.5771C54.462 80.9372 55.8687 79.1012 55.8687 76.943C55.8687 74.784 54.4619 72.9486 52.5128 72.309L51.6526 72.0267V71.1213V67.5693H50.3323V71.1213V72.0266L49.4721 72.309C47.5235 72.9486 46.1162 74.7841 46.1162 76.9429L50.3323 81.8595ZM50.3323 81.8595L49.4723 81.5771M50.3323 81.8595L49.4723 81.5771M49.4723 81.5771C47.5236 80.9373 46.1164 79.1011 46.1162 76.943L49.4723 81.5771Z" stroke="black" stroke-width="2.5"/>
<path d="M37.2645 65.6932L36.6244 66.3333L37.0328 67.1411C37.9582 68.9714 37.6549 71.2648 36.129 72.7909C34.6024 74.3175 32.3094 74.6204 30.4792 73.6948L29.6713 73.2862L29.0312 73.9264L26.5195 76.438L25.5859 75.5044L28.0976 72.9928L28.7378 72.3526L28.3291 71.5447C27.4032 69.7143 27.7063 67.4217 29.233 65.8951L28.3707 65.0327L29.233 65.8951C30.7591 64.369 33.0521 64.0654 34.8829 64.9912L35.6907 65.3998L36.3309 64.7596L38.8425 62.248L39.7762 63.1816L37.2645 65.6932Z" stroke="black" stroke-width="2.5"/>
<path d="M29.9834 51.653H30.8886H34.4406V50.3327H30.8886H29.9833L29.7009 49.4726C29.0611 47.5235 27.225 46.1168 25.0667 46.1168C22.9076 46.1168 21.0722 47.5236 20.4326 49.4725L20.1503 50.3327H19.2449H15.6929V51.653H19.2449H20.1502L20.4326 52.5132C21.0722 54.4618 22.9077 55.869 25.0667 55.8691L29.9834 51.653ZM29.9834 51.653L29.701 52.513M29.9834 51.653L29.701 52.513M29.701 52.513C29.0611 54.4616 27.2249 55.8689 25.0667 55.8691L29.701 52.513Z" stroke="black" stroke-width="2.5"/>
<defs>
<filter id="filter0_f_27_111" x="0.812912" y="0.812912" width="100.374" height="100.374" filterUnits="userSpaceOnUse" color-interpolation-filters="sRGB">
<feFlood flood-opacity="0" result="BackgroundImageFix"/>
<feBlend mode="normal" in="SourceGraphic" in2="BackgroundImageFix" result="shape"/>
<feGaussianBlur stdDeviation="0.0935441" result="effect1_foregroundBlur_27_111"/>
</filter>
</defs>
</svg>
