<svg width="70" height="8" viewBox="0 0 70 8" fill="none" xmlns="http://www.w3.org/2000/svg">
<path d="M3.87786 7.77954C2.8284 7.77954 1.91973 7.39207 1.15184 6.61711C0.383946 5.84128 0 4.92907 0 3.8805C0 2.83193 0.387917 1.92282 1.16375 1.15316C1.93871 0.384386 2.85047 0 3.89904 0C4.94761 0 5.8682 0.387476 6.66081 1.16243C7.45253 1.93827 7.84839 2.85047 7.84839 3.89904C7.84839 4.94761 7.45385 5.85673 6.66478 6.62638C5.8757 7.39516 4.94673 7.77954 3.87786 7.77954ZM34.9907 7.77954C33.9422 7.77954 33.033 7.39207 32.2634 6.61711C31.4946 5.84128 31.1102 4.92907 31.1102 3.8805C31.1102 2.83193 31.4977 1.92282 32.2727 1.15316C33.0485 0.384386 33.9607 0 35.0093 0C36.0578 0 36.967 0.387476 37.7366 1.16243C38.5054 1.93827 38.8898 2.85047 38.8898 3.89904C38.8898 4.94761 38.5023 5.85673 37.7274 6.62638C36.9515 7.39516 36.0393 7.77954 34.9907 7.77954ZM66.101 7.77954C65.0524 7.77954 64.1318 7.39207 63.3392 6.61711C62.5475 5.84128 62.1516 4.92907 62.1516 3.8805C62.1516 2.83193 62.5462 1.92282 63.3352 1.15316C64.1243 0.384386 65.0533 0 66.1222 0C67.1716 0 68.0803 0.387476 68.8482 1.16243C69.6161 1.93827 70 2.85047 70 3.89904C70 4.94761 69.6121 5.85673 68.8362 6.62638C68.0613 7.39516 67.1495 7.77954 66.101 7.77954Z" fill="currentColor"/>
</svg>
