<svg width="101" height="101" viewBox="0 0 101 101" fill="none" xmlns="http://www.w3.org/2000/svg">
<path d="M8.76332 100.294C6.70682 100.294 4.95784 99.5666 3.48946 98.0982C2.02107 96.6298 1.29395 94.8808 1.29395 92.8243V73.9279H4.83507V92.8075C4.83507 93.825 5.26457 94.7362 6.05801 95.5296C6.85144 96.3231 7.76268 96.7526 8.78011 96.7526H27.6597V100.294H8.76332ZM1.29395 27.6595V8.76307C1.29395 6.70658 2.02107 4.9576 3.48946 3.48921C4.95784 2.02082 6.70682 1.2937 8.76332 1.2937H27.6597V4.83483H8.78011C7.76268 4.83483 6.85144 5.26433 6.05801 6.05777C5.26457 6.8512 4.83507 7.76244 4.83507 8.77987V27.6595H1.29395ZM44.1976 82.2874V85.7626C36.9558 84.448 30.7503 81.202 25.568 76.0197C20.3857 70.8374 17.1396 64.6319 15.825 57.3901H19.2995C20.5507 63.7348 23.4433 69.1632 27.974 73.6624C32.5021 78.1599 37.9139 81.0364 44.1976 82.2874ZM15.826 44.0965C17.1411 36.9219 20.3895 30.7517 25.5774 25.5737C30.766 20.3958 36.9685 17.1481 44.1976 15.8256V19.2993C37.8583 20.5507 32.4344 23.4283 27.9389 27.9293C23.4444 32.4285 20.5637 37.8215 19.3011 44.0965H15.826ZM50.8079 58.1133C48.7471 58.1133 47.0222 57.4015 45.6025 55.9722C44.1821 54.5421 43.4744 52.8093 43.4744 50.7433C43.4744 48.7201 44.1847 46.9954 45.6189 45.5428C47.0497 44.0936 48.7815 43.3733 50.8443 43.3733C52.8663 43.3733 54.5907 44.0884 56.0436 45.5334C57.4938 46.9758 58.2143 48.7148 58.2143 50.7797C58.2143 52.8394 57.4978 54.5639 56.0577 55.9839C54.6161 57.4054 52.876 58.1133 50.8079 58.1133ZM76.0142 76.0199C70.8362 81.2014 64.6659 84.4467 57.4911 85.7617V82.2865C63.767 81.0231 69.1605 78.1264 73.6596 73.6013C78.1581 69.0768 81.0356 63.6692 82.2876 57.3901H85.7623C84.4398 64.632 81.192 70.8376 76.0142 76.0199ZM82.2868 44.0965C81.0242 37.8217 78.1439 32.4313 73.6502 27.9375C69.1564 23.4437 63.766 20.5635 57.4911 19.3008V15.8257C64.666 17.1407 70.8363 20.3846 76.0143 25.5635C81.1915 30.7424 84.4385 36.916 85.7614 44.0965H82.2868ZM73.9282 100.294V96.7526H92.8078C93.8252 96.7526 94.7365 96.3231 95.5299 95.5296C96.3233 94.7362 96.7528 93.825 96.7528 92.8075V73.9279H100.294V92.8243C100.294 94.8808 99.5668 96.6298 98.0984 98.0982C96.6301 99.5666 94.8811 100.294 92.8246 100.294H73.9282ZM96.7528 27.6595V8.77987C96.7528 7.76244 96.3233 6.8512 95.5299 6.05777C94.7365 5.26433 93.8252 4.83483 92.8078 4.83483H73.9282V1.2937H92.8246C94.8811 1.2937 96.6301 2.02082 98.0984 3.48921C99.5668 4.9576 100.294 6.70658 100.294 8.76307V27.6595H96.7528Z" fill="currentColor" stroke="currentColor"/>
</svg>
