<svg width="101" height="101" viewBox="0 0 101 101" fill="none" xmlns="http://www.w3.org/2000/svg">
<path d="M39.1424 70.1995H43.6835V31.32H39.1424V70.1995ZM57.9368 70.1995H62.478V31.32H57.9368V70.1995ZM50.792 100.76C43.8897 100.76 37.4019 99.443 31.3284 96.8094C25.2549 94.1758 19.955 90.5973 15.4288 86.0739C10.9017 81.5505 7.32508 76.2628 4.69896 70.2107C2.07283 64.1587 0.759766 57.6858 0.759766 50.792C0.759766 43.8757 2.07656 37.3688 4.71015 31.271C7.34375 25.1742 10.9222 19.8701 15.4456 15.3588C19.969 10.8476 25.2568 7.28682 31.3088 4.67656C37.3608 2.06536 43.8337 0.759766 50.7276 0.759766C57.6438 0.759766 64.1508 2.07236 70.2485 4.69756C76.3463 7.32275 81.6508 10.8858 86.1621 15.3868C90.6724 19.8869 94.2327 25.1751 96.843 31.2514C99.4542 37.3277 100.76 43.8198 100.76 50.7276C100.76 57.6298 99.4509 64.1176 96.8332 70.1911C94.2145 76.2646 90.6514 81.5645 86.1439 86.0907C81.6364 90.6178 76.3444 94.1944 70.2681 96.8206C64.1918 99.4467 57.6998 100.76 50.792 100.76ZM50.7528 96.2186C63.3739 96.2186 74.107 91.7951 82.9522 82.948C91.7965 74.1 96.2186 63.3729 96.2186 50.7668C96.2186 38.1457 91.7988 27.4125 82.9592 18.5673C74.1187 9.72304 63.3879 5.30089 50.7668 5.30089C38.1597 5.30089 27.4303 9.7207 18.5785 18.5603C9.72677 27.4009 5.30089 38.1317 5.30089 50.7528C5.30089 63.3599 9.72443 74.0893 18.5715 82.941C27.4195 91.7928 38.1466 96.2186 50.7528 96.2186Z" fill="currentColor"/>
</svg>
