<svg width="80" height="75" viewBox="0 0 80 75" fill="none" xmlns="http://www.w3.org/2000/svg"><path d="M49.375 37.829c3.412-2.666 7.453-3.82 11.787-4.35.193-.024.182-.305-.01-.317-2.266-.135-4.523-.061-6.763.296-2.81.448-5.636.882-8.152 2.156a.84.84 0 0 1-.448.058c-1.087-.142-2.172-.296-3.275-.45a.156.156 0 0 1-.092-.263c1.924-1.998 2.792-4.33 3.012-6.87.161-1.856.128-3.743.526-5.561.922-4.21 4.366-6.635 9.387-7.003 5.019-.368 9.472.989 13.717 3.057 3.379 1.647 6.364 3.701 8.905 6.233 1.637 1.632 2.236 3.481 1.97 5.573-.904 7.146-4.591 13.015-11.21 17.489-2.881 1.947-6.11 3.182-9.91 3.057-3.242-.107-6.114-1.626-7.056-3.979-.288-.717-.19-1.58-.106-2.365.26-2.424-.268-4.621-2.293-6.52a.16.16 0 0 1 .011-.241M37.3 34.733a.334.334 0 0 1-.195.552c-.966.16-1.935.321-2.908.46a1.4 1.4 0 0 1-.731-.12c-5.172-2.424-10.741-2.833-16.485-2.37-.05.005-.096.034-.225.082 5.008.406 9.66 1.424 13.427 4.4a.334.334 0 0 1 .03.498c-2.076 2.067-2.226 4.505-1.921 7.053.056.476.014 1.02-.204 1.451-1.54 3.05-4.966 4.536-9.065 4.1-2.717-.288-5.07-1.259-7.205-2.616C4.51 43.58.596 37.355.016 29.613c-.126-1.685.478-3.197 1.723-4.476 4.767-4.897 10.752-8.155 18.111-9.434 2.59-.45 5.212-.349 7.736.448 4.066 1.282 6.198 3.835 6.587 7.45.17 1.574.093 3.167.232 4.744.214 2.415 1.263 4.556 2.895 6.388" fill="currentColor"/><path d="M53.051 13.223c-2.24.701-4.16 1.693-5.794 3.036-2.965 2.436-3.951 5.42-4.114 8.656-.09 1.792-.09 3.597-.4 5.367-.175 1.003-.757 2.01-1.407 2.904-.682.938-1.784.9-2.679.063-1.312-1.229-1.624-2.722-1.759-4.237-.158-1.768-.164-3.544-.333-5.311-.457-4.792-3.362-8.305-9.07-10.32-.179-.062-.353-.135-.527-.206-.048-.02-.087-.053-.197-.121.393-1.5 1.108-2.937 1.99-4.328 2.288-3.61 5.608-6.47 10.135-8.469.738-.326 1.341-.355 2.095-.014 6.038 2.73 9.953 6.722 11.84 11.936.03.084.062.169.079.255.046.237.086.475.141.789M49.51 49.969c2.052 3.273 3.884 5.356 7.59 6.204.719.164 1.093-.817.456-1.185a16 16 0 0 1-1.671-1.107 40 40 0 0 1-1.111-.874c-.55-.447-.074-1.325.6-1.109 3.356 1.076 6.863 1.024 10.567-.266.28-.098.59.007.752.256 1.554 2.405 2.624 4.922 2.757 7.661.035.743.029 1.49-.018 2.232-.062.976-.37 1.284-1.57 1.486-3.378.57-6.722.447-9.992-.453-6.176-1.7-10.921-4.86-14.548-9.136-.147-.174-.182-.58-.034-.716.953-.871 2.14-1.044 3.267-1.53.336-.143 2.691-1.885 2.956-1.463m-13.128 2.407a.97.97 0 0 1 .072 1.347c-3.03 3.478-6.731 6.389-11.69 8.16-3.704 1.322-7.594 1.767-11.625 1.26-.35-.044-.692-.13-1.039-.194-.768-.139-1.15-.521-1.223-1.15a13.6 13.6 0 0 1 .95-6.867c.427-1.031.977-2.03 1.524-3.07a.97.97 0 0 1 1.187-.46c3.059 1.086 5.965 1.248 8.76.616 1.027-.233 1.627 1.121.77 1.735l-.09.065c-.93.659-.144 2.11.916 1.69 2.826-1.117 3.492-3.836 5.226-6.25.342-.476 1.531-.078 1.96.321.905.84 3.364 1.926 4.302 2.797m.697-4.237a.488.488 0 0 1-.589.676c-2.39-.758-4.336-2.73-4.781-4.938-.548-2.715.962-5.454 3.405-6.523.395-.172.8.226.643.627-1.386 3.52-.225 6.85 1.318 10.149zm7.395-9.076c-.235-.886.802-1.56 1.514-.982 1.403 1.138 2.29 2.99 2.232 4.973-.067 2.268-1.551 4.332-3.64 5.34-.792.382-1.634-.42-1.289-1.229 1.118-2.622 1.933-5.275 1.183-8.102M38.829 63.81c-.801-.552-1.496-1.041-2.205-1.51-.177-.118-.395-.225-.6-.235-.19-.009-.463.065-.556.2-.094.137-.09.454.01.588.238.317.545.587.847.849.532.461 1.093.889 1.617 1.358.243.217.428.498.732.86-.26 0-.382.016-.5-.001-2.294-.335-3.827-1.596-4.56-3.796-.185-.554-.302-1.132-.429-1.703-.063-.287.027-.477.377-.505 2.037-.163 4.52 1.456 5.136 3.365.049.15.077.307.131.53m3.476 1.702c.374-.327.747-.657 1.123-.981.622-.536 1.257-1.057 1.864-1.608.252-.229.466-.532.184-.88-.273-.334-.62-.217-.91-.036-.652.407-1.286.845-1.924 1.274-.135.09-.258.198-.387.298l-.143-.084c.218-.47.376-.982.665-1.405 1.103-1.614 2.773-2.184 4.616-2.39.294-.033.424.145.431.429.06 2.483-2.26 5.224-4.709 5.558-.225.031-.454.025-.682.036z" fill="currentColor"/><path d="M40.017 43.687a.3.3 0 0 1-.11.025c-.394.014-.594-.648-.76-.905-.526-.815-1.623-1.246-1.82-2.265-.101-.522.112-1.16.505-1.52.502-.457 1.284-.183 1.809.186.129.09.304.075.416-.036a7 7 0 0 1 .361-.334 1.7 1.7 0 0 1 .785-.32c.52-.069 1.097.132 1.246.683.235.862-.18 1.734-.642 2.442-.432.662-.99 1.517-1.653 1.967a.7.7 0 0 1-.137.077m-1.394 11.305c-.136-.245-.106-.66-.067-.923.015-.1.05-.217.148-.248.094-.03.187.039.272.087.347.198.79.102 1.144-.083s.663-.452 1.029-.61c.059-.026.126-.049.185-.024.096.04.106.168.102.27L41.39 54.7c-.202 5.684-.066 11.374.07 17.06.005.22.015.455.15.63.133.173.438.227.561.046.034-.05.057-.117.114-.134.082-.026.147.069.181.147.09.206.18.42.178.644s-.124.464-.338.531c-.11.034-.228.02-.341.008a11 11 0 0 0-2.187-.025c-.175.015-.356.037-.506.13-.236.145-.397.464-.674.449-.3-.016-.412-.44-.272-.705s.417-.422.638-.624c.773-.705.821-1.885.814-2.93l-.041-5.933-.042-5.932-.01-1.423c0-.18-.041-.347-.044-.527-.004-.188.002-.397-.066-.575" fill="currentColor"/></svg>