<svg width="24" height="24" viewBox="0 0 24 24" fill="none" xmlns="http://www.w3.org/2000/svg">
<path d="M23.2453 24L13.8113 14.566C13.0566 15.2201 12.1887 15.7233 11.2075 16.0755C10.2264 16.4277 9.25786 16.6038 8.30189 16.6038C5.98164 16.6038 4.01786 15.8008 2.41057 14.1947C0.803522 12.5889 0 10.6267 0 8.30792C0 5.98943 0.803019 4.02516 2.40906 2.41509C4.01484 0.805031 5.97711 0 8.29585 0C10.6143 0 12.5786 0.803522 14.1887 2.41057C15.7987 4.01786 16.6038 5.98164 16.6038 8.30189C16.6038 9.33333 16.4151 10.3396 16.0377 11.3208C15.6604 12.3019 15.1698 13.1321 14.566 13.8113L24 23.2453L23.2453 24ZM8.30189 15.5472C10.3396 15.5472 12.0566 14.8491 13.4528 13.4528C14.8491 12.0566 15.5472 10.3396 15.5472 8.30189C15.5472 6.26415 14.8491 4.54717 13.4528 3.15094C12.0566 1.75472 10.3396 1.0566 8.30189 1.0566C6.26415 1.0566 4.54717 1.75472 3.15094 3.15094C1.75472 4.54717 1.0566 6.26415 1.0566 8.30189C1.0566 10.3396 1.75472 12.0566 3.15094 13.4528C4.54717 14.8491 6.26415 15.5472 8.30189 15.5472Z" fill="currentColor"/>
</svg>
