<svg width="100" height="100" viewBox="0 0 100 100" fill="none" xmlns="http://www.w3.org/2000/svg">
<path d="M39.0559 69.3614L69.3614 50L39.0559 30.6386V69.3614ZM50.0322 100C43.13 100 36.6421 98.6832 30.5686 96.0496C24.4951 93.416 19.1953 89.8375 14.6691 85.3141C10.1419 80.7907 6.56532 75.503 3.93919 69.451C1.31306 63.3989 0 56.926 0 50.0322C0 43.116 1.3168 36.609 3.95039 30.5112C6.58398 24.4144 10.1625 19.1103 14.6859 14.5991C19.2093 10.0878 24.497 6.52705 30.549 3.91679C36.6011 1.30559 43.074 0 49.9678 0C56.884 0 63.391 1.3126 69.4888 3.93779C75.5865 6.56299 80.8911 10.1261 85.4023 14.6271C89.9127 19.1271 93.4729 24.4153 96.0832 30.4916C98.6944 36.5679 100 43.06 100 49.9678C100 56.87 98.6911 63.3579 96.0734 69.4314C93.4547 75.5049 89.8917 80.8047 85.3841 85.3309C80.8766 89.8581 75.5847 93.4347 69.5084 96.0608C63.4321 98.6869 56.94 100 50.0322 100ZM49.993 95.4589C62.6141 95.4589 73.3472 91.0353 82.1925 82.1883C91.0367 73.3402 95.4589 62.6132 95.4589 50.007C95.4589 37.3859 91.0391 26.6528 82.1995 17.8076C73.3589 8.96327 62.6281 4.54113 50.007 4.54113C37.3999 4.54113 26.6705 8.96093 17.8187 17.8005C8.967 26.6411 4.54113 37.3719 4.54113 49.993C4.54113 62.6001 8.96467 73.3295 17.8117 82.1813C26.6598 91.033 37.3868 95.4589 49.993 95.4589Z" fill="currentColor"/>
</svg>
