<svg width="96" height="100" viewBox="0 0 96 100" fill="none" xmlns="http://www.w3.org/2000/svg">
<path d="M16.4448 100L0 83.6778L16.4448 67.4301L19.5081 70.3602L8.26771 81.5645H86.7996L75.6032 70.3602L78.7318 67.4301L95.1833 83.6778L78.7318 100L75.5726 96.9741L86.813 85.8869H8.39029L19.4774 96.9741L16.4448 100ZM45.4784 55.369V0H49.8008V55.369H45.4784ZM25.472 45.2426V10.1464H29.7931V45.2426H25.472ZM65.5248 45.2426V10.1464H69.8472V45.2426H65.5248ZM5.32971 32.4326V23.1416H9.6521V32.4326H5.32971ZM85.5312 32.4326V23.1416H89.8536V32.4326H85.5312Z" fill="currentColor"/>
</svg>
