<svg width="153" height="153" viewBox="0 0 153 153" fill="none" xmlns="http://www.w3.org/2000/svg">
<mask id="mask0_6_363" style="mask-type:alpha" maskUnits="userSpaceOnUse" x="0" y="0" width="153" height="153">
<rect width="153" height="153" fill="#D9D9D9"/>
</mask>
<g mask="url(#mask0_6_363)">
<path d="M65.0559 100.361L95.3614 81L65.0559 61.6386V100.361ZM76.0322 131C69.13 131 62.6421 129.683 56.5686 127.05C50.4951 124.416 45.1953 120.838 40.6691 116.314C36.1419 111.791 32.5653 106.503 29.9392 100.451C27.3131 94.3989 26 87.926 26 81.0322C26 74.116 27.3168 67.609 29.9504 61.5112C32.584 55.4144 36.1625 50.1103 40.6859 45.5991C45.2093 41.0878 50.497 37.5271 56.549 34.9168C62.6011 32.3056 69.074 31 75.9678 31C82.884 31 89.391 32.3126 95.4888 34.9378C101.587 37.563 106.891 41.1261 111.402 45.6271C115.913 50.1271 119.473 55.4153 122.083 61.4916C124.694 67.5679 126 74.06 126 80.9678C126 87.87 124.691 94.3579 122.073 100.431C119.455 106.505 115.892 111.805 111.384 116.331C106.877 120.858 101.585 124.435 95.5084 127.061C89.4321 129.687 82.94 131 76.0322 131ZM75.993 126.459C88.6141 126.459 99.3472 122.035 108.192 113.188C117.037 104.34 121.459 93.6132 121.459 81.007C121.459 68.3859 117.039 57.6528 108.199 48.8076C99.3589 39.9633 88.6281 35.5411 76.007 35.5411C63.3999 35.5411 52.6705 39.9609 43.8187 48.8005C34.967 57.6411 30.5411 68.3719 30.5411 80.993C30.5411 93.6001 34.9647 104.33 43.8117 113.181C52.6598 122.033 63.3868 126.459 75.993 126.459Z" fill="white"/>
</g>
</svg>
