<svg width="78" height="34" viewBox="0 0 78 34" fill="none" xmlns="http://www.w3.org/2000/svg">
<path d="M17.1025 33.6093C12.5564 33.6093 8.69668 31.9777 5.52335 28.7143C2.34946 25.451 0.762512 21.5243 0.762512 16.9343C0.762512 12.3766 2.35279 8.47822 5.53335 5.23933C8.71335 2.001 12.5675 0.381836 17.0958 0.381836C18.8814 0.381836 20.6061 0.688779 22.27 1.30267C23.9339 1.91656 25.4453 2.86072 26.8042 4.13517L34.8717 11.2277L33.0767 12.936L25.2792 5.9235C24.0803 4.92572 22.787 4.17183 21.3992 3.66183C20.0114 3.15239 18.572 2.89767 17.0808 2.89767C13.1753 2.89767 9.89862 4.26767 7.25085 7.00767C4.60307 9.74711 3.27918 13.0543 3.27918 16.9293C3.27918 20.8371 4.60001 24.1746 7.24168 26.9418C9.88279 29.7096 13.1608 31.0935 17.0758 31.0935C18.5597 31.0935 19.9986 30.8368 21.3925 30.3235C22.787 29.8107 24.0789 29.0624 25.2683 28.0785L51.2325 4.136C52.5342 2.86267 54.0245 1.9185 55.7033 1.3035C57.3822 0.689058 59.1072 0.381836 60.8783 0.381836C65.4433 0.381836 69.3128 1.99795 72.4867 5.23017C75.66 8.46295 77.2467 12.3424 77.2467 16.8685C77.2467 21.4741 75.6567 25.4154 72.4767 28.6927C69.2961 31.9704 65.4356 33.6093 60.895 33.6093C59.1095 33.6093 57.3953 33.2841 55.7525 32.6335C54.1097 31.9829 52.5939 31.0849 51.205 29.9393L43.3783 22.7085L45.1092 21.0102L52.7892 28.0735C53.872 29.1185 55.1192 29.8829 56.5308 30.3668C57.942 30.8513 59.4033 31.0935 60.915 31.0935C64.8322 31.0935 68.1142 29.7032 70.7608 26.9227C73.4075 24.1421 74.7308 20.7863 74.7308 16.8552C74.7308 13.0024 73.39 9.71295 70.7083 6.98684C68.0272 4.26073 64.7631 2.89767 60.9158 2.89767C59.437 2.89767 57.9989 3.1535 56.6017 3.66517C55.205 4.17683 53.9397 4.9385 52.8058 5.95017L26.7767 29.9568C25.4478 31.2174 23.9439 32.1413 22.265 32.7285C20.5867 33.3157 18.8658 33.6093 17.1025 33.6093Z" fill="currentColor"/>
</svg>
