<svg xmlns="http://www.w3.org/2000/svg" height="24" viewBox="0 -960 960 960" width="24"><path d="M447-118q-23.415 0-43.707-10.5Q383-139 369-159L127-514l4-4q11-11 26-11.5t28 8.5l147 102v-326q0-5.95 4.035-9.975 4.035-4.025 10-4.025t9.965 4.025q4 4.025 4 9.975v380L175-494l217 319q9 14 23.5 21.5T447-146h207q45 0 75.5-30.5T760-252v-482q0-5.95 4.035-9.975 4.035-4.025 10-4.025t9.965 4.025q4 4.025 4 9.975v482q0 56-39 95t-95 39H447Zm28-388v-319q0-5.95 4.035-9.975 4.035-4.025 10-4.025t9.965 4.025q4 4.025 4 9.975v319h-28Zm143 0v-279q0-5.95 4.035-9.975 4.035-4.025 10-4.025t9.965 4.025q4 4.025 4 9.975v279h-28ZM468-326Z"/></svg>