<svg width="61" height="50" viewBox="0 0 61 50" fill="none" xmlns="http://www.w3.org/2000/svg">
<path d="M20.2254 49.2752L18.4437 47.5761L25.8154 40.1311H20.1229C14.6356 40.1311 9.95758 38.1786 6.08869 34.2736C2.22036 30.3686 0.286194 25.6497 0.286194 20.1169C0.286194 14.5836 2.20647 9.86663 6.04703 5.96607C9.88814 2.06551 14.5737 0.115234 20.1037 0.115234H40.347C45.8976 0.115234 50.6004 2.0619 54.4554 5.95524C58.3104 9.84912 60.2379 14.5697 60.2379 20.1169C60.2379 25.6775 58.2934 30.4033 54.4045 34.2944C50.5151 38.1855 45.7887 40.1311 40.2254 40.1311V37.6152C45.0865 37.6152 49.2179 35.9125 52.6195 32.5069C56.0212 29.1013 57.722 24.9713 57.722 20.1169C57.722 15.2758 56.0443 11.1511 52.6887 7.74274C49.3326 4.33496 45.2251 2.63107 40.3662 2.63107H20.0845C15.2462 2.63107 11.1562 4.33135 7.81453 7.7319C4.47286 11.133 2.80203 15.2613 2.80203 20.1169C2.80203 24.9725 4.47675 29.1027 7.8262 32.5077C11.1756 35.9127 15.2745 37.5597 20.1229 37.4486H25.6679L18.527 30.2427L20.2254 28.4711L30.6645 38.9094L20.2254 49.2752Z" fill="currentColor"/>
</svg>
