<svg width="101" height="101" viewBox="0 0 101 101" fill="none" xmlns="http://www.w3.org/2000/svg">
<path d="M50.8747 72.4073C56.8465 72.4073 61.928 70.3113 66.1191 66.1192C70.3112 61.928 72.4073 56.8465 72.4073 50.8748C72.4073 44.903 70.3112 39.8215 66.1191 35.6303C61.928 31.4382 56.8465 29.3422 50.8747 29.3422C44.9029 29.3422 39.8214 31.4382 35.6303 35.6303C31.4382 39.8215 29.3421 44.903 29.3421 50.8748C29.3421 56.8465 31.4382 61.928 35.6303 66.1192C39.8214 70.3113 44.9029 72.4073 50.8747 72.4073ZM50.9069 100.875C44.0047 100.875 37.5168 99.558 31.4433 96.9244C25.3698 94.2908 20.07 90.7123 15.5438 86.1889C11.0166 81.6655 7.44001 76.3778 4.81389 70.3257C2.18776 64.2737 0.874695 57.8008 0.874695 50.907C0.874695 43.9907 2.19149 37.4838 4.82508 31.386C7.45868 25.2892 11.0372 19.9851 15.5606 15.4738C20.084 10.9626 25.3717 7.40181 31.4237 4.79155C37.4758 2.18035 43.9487 0.874756 50.8425 0.874756C57.7587 0.874756 64.2657 2.18735 70.3635 4.81255C76.4612 7.43774 81.7658 11.0008 86.277 15.5018C90.7874 20.0019 94.3476 25.2901 96.9579 31.3664C99.5691 37.4427 100.875 43.9347 100.875 50.8426C100.875 57.7448 99.5658 64.2326 96.9481 70.3061C94.3294 76.3796 90.7664 81.6795 86.2588 86.2057C81.7513 90.7328 76.4594 94.3094 70.3831 96.9356C64.3068 99.5617 57.8147 100.875 50.9069 100.875ZM50.8677 96.3336C63.4888 96.3336 74.2219 91.9101 83.0671 83.063C91.9114 74.215 96.3336 63.4879 96.3336 50.8818C96.3336 38.2607 91.9138 27.5275 83.0741 18.6823C74.2336 9.83803 63.5028 5.41588 50.8817 5.41588C38.2746 5.41588 27.5452 9.83569 18.6934 18.6753C9.8417 27.5158 5.41582 38.2467 5.41582 50.8678C5.41582 63.4748 9.83936 74.2043 18.6864 83.056C27.5345 91.9078 38.2615 96.3336 50.8677 96.3336Z" fill="red"/>
</svg>
