<svg width="100" height="100" viewBox="0 0 100 100" fill="none" xmlns="http://www.w3.org/2000/svg">
<path d="M57 5C52.7956 5 48.6324 5.82853 44.7484 7.43824C40.8643 9.04796 37.3355 11.4073 34.3637 14.3814C31.3919 17.3555 29.0354 20.8861 27.4287 24.7715C25.822 28.6568 24.9967 32.8206 25 37.025C25.0066 50.7546 30.4636 63.9199 40.1719 73.6281C49.8801 83.3364 63.0454 88.7934 76.775 88.8" stroke="white"/>
<path d="M76.775 24.8C76.7783 22.201 76.2692 19.6269 75.2769 17.2248C74.2846 14.8227 72.8285 12.6397 70.9919 10.8008C69.1553 8.96187 66.9742 7.50302 64.5733 6.50767C62.1725 5.51232 59.599 5 57 5" stroke="white"/>
<path d="M76.775 24.8C76.775 28.0423 75.487 31.1517 73.1944 33.4444C70.9018 35.737 67.7923 37.025 64.55 37.025" stroke="white"/>
<path d="M57 29.45C57 31.4391 57.7902 33.3468 59.1967 34.7533C60.6032 36.1598 62.5109 36.95 64.5 36.95" stroke="white"/>
<path d="M57 29.45C57 28.2167 57.4899 27.034 58.362 26.1619C59.234 25.2899 60.4167 24.8 61.65 24.8" stroke="white"/>
<path d="M64.55 27.7C64.55 26.9309 64.2445 26.1932 63.7006 25.6494C63.1568 25.1055 62.4191 24.8 61.65 24.8" stroke="white"/>
<path d="M64.55 27.7C64.55 28.1641 64.3656 28.6093 64.0374 28.9374C63.7092 29.2656 63.2641 29.45 62.8 29.45" stroke="white"/>
<path d="M62.8 27.7V29.45" stroke="white"/>
<path d="M62.8 28.3H61.65" stroke="white"/>
<path d="M62.225 28.3V27.7" stroke="white"/>
<path d="M61.65 28.3C61.6564 28.603 61.7796 28.8918 61.9939 29.1061C62.2082 29.3204 62.497 29.4436 62.8 29.45" stroke="white"/>
<path d="M61.65 28.3C61.6466 28.2224 61.659 28.145 61.6864 28.0723C61.7138 27.9996 61.7556 27.9332 61.8093 27.8772C61.863 27.8211 61.9276 27.7765 61.999 27.746C62.0705 27.7156 62.1473 27.6999 62.225 27.7" stroke="white"/>
<path d="M62.8 28.3C62.8034 28.2224 62.791 28.145 62.7636 28.0723C62.7362 27.9996 62.6944 27.9332 62.6407 27.8772C62.587 27.8211 62.5224 27.7765 62.451 27.746C62.3795 27.7156 62.3027 27.6999 62.225 27.7" stroke="white"/>
<path d="M50 97.125C76.0264 97.125 97.125 76.0264 97.125 50C97.125 23.9736 76.0264 2.875 50 2.875C23.9736 2.875 2.875 23.9736 2.875 50C2.875 76.0264 23.9736 97.125 50 97.125Z" stroke="white" stroke-width="3"/>
<path d="M25 89.075C28.6345 90.2907 32.0966 91.9713 35.3 94.075C37.1014 95.0241 39.0908 95.562 41.125 95.65C42.8884 95.3802 44.687 95.4481 46.425 95.85C53.075 98 57.5 95.275 64.5 94.075C67 93.625 74.9 92.05 74.5 89.5C67.4588 89.5794 58.6892 86.3583 52.5 83C50.475 81.925 49.825 81.075 47.775 80C46.94 79.4564 46.6642 80.4455 46.35 79.5C45.475 78.775 42.525 77.2 42 76.5C40.65 74.625 39.5 74 38 72C36.6273 70.9639 37.2288 72.0578 36.5 70.5C32.4774 63.3923 29.2726 56.9827 26 49.5C25.6249 48.6956 25.7237 46.8589 25.5 46C25.0635 43.4976 23.7513 41.9274 24.5 39.5C25.325 35.8 25.175 31.2 26 27.5C26.6396 25.8377 26.8541 23.9344 27.875 22.475C28.5 21.225 29.125 20.6 30 19.5C31.779 17.404 32.5913 15.075 34.625 13.225C37.6887 10.6274 41.0447 8.39569 44.625 6.57501C45.6535 6.191 46.7057 5.87368 47.775 5.62501C48.225 5.45001 57.85 4.7 58 4.5C58.9 3.3 46.95 3.67501 46.35 3.65001C41.9817 3.68497 37.6581 4.53274 33.6 6.15001C31.2787 6.94225 29.0493 7.98155 26.95 9.25001C22.4753 12.0324 18.3753 15.3762 14.75 19.2C13.5 20.5 12.5 22.475 11.5 24C10.3496 25.4209 10.0946 27.5786 9.25 29.2C5.5 35 4.73556 41.9215 3.95 48.625C3.31163 53.7211 4.18078 58.8926 6.45 63.5C6.45 63.675 5.425 64.125 5.5 64.325C5.575 64.525 6.95 66.25 6.975 66.65C7.175 71.025 15.5 77.75 12.175 75C6.275 70 11.925 76.15 14.525 78.775C15.1311 79.5308 16.6449 82.5986 17 83.5" fill="white"/>
<path d="M25 89.075C28.6345 90.2907 32.0966 91.9713 35.3 94.075C37.1014 95.0241 39.0908 95.562 41.125 95.65C42.8884 95.3802 44.687 95.4481 46.425 95.85C53.075 98 57.5 95.275 64.5 94.075C67 93.625 74.9 92.05 74.5 89.5C67.4588 89.5794 58.6892 86.3583 52.5 83C50.475 81.925 49.825 81.075 47.775 80C46.94 79.4564 46.6642 80.4455 46.35 79.5C45.475 78.775 42.525 77.2 42 76.5C40.65 74.625 39.5 74 38 72C36.6273 70.9639 37.2288 72.0578 36.5 70.5C32.4774 63.3923 29.2726 56.9827 26 49.5C25.6249 48.6956 25.7237 46.8589 25.5 46C25.0635 43.4976 23.7513 41.9274 24.5 39.5C25.325 35.8 25.175 31.2 26 27.5C26.6396 25.8377 26.8541 23.9344 27.875 22.475C28.5 21.225 29.125 20.6 30 19.5C31.779 17.404 32.5913 15.075 34.625 13.225C37.6887 10.6274 41.0447 8.39569 44.625 6.57501C45.6535 6.191 46.7057 5.87368 47.775 5.62501C48.225 5.45001 57.85 4.7 58 4.5C58.9 3.3 46.95 3.67501 46.35 3.65001C41.9817 3.68497 37.6581 4.53274 33.6 6.15001C31.2787 6.94225 29.0493 7.98155 26.95 9.25001C22.4753 12.0324 18.3753 15.3762 14.75 19.2C13.5 20.5 12.5 22.475 11.5 24C10.3496 25.4209 10.0946 27.5786 9.25 29.2C5.5 35 4.73556 41.9215 3.95 48.625C3.31163 53.7211 4.18078 58.8926 6.45 63.5C6.45 63.675 5.425 64.125 5.5 64.325C5.575 64.525 6.95 66.25 6.975 66.65C7.175 71.025 15.5 77.75 12.175 75C6.275 70 11.925 76.15 14.525 78.775C15.1311 79.5308 16.6449 82.5986 17 83.5" stroke="white" stroke-miterlimit="10"/>
</svg>
