<svg width="89" height="100" viewBox="0 0 89 100" fill="none" xmlns="http://www.w3.org/2000/svg">
<path d="M75.9127 100C72.3291 100 69.2807 98.7411 66.7675 96.2232C64.2543 93.7053 62.9976 90.6466 62.9976 87.0471C62.9976 86.3519 63.2828 84.847 63.853 82.5326L22.9198 58.2325C21.6861 59.7089 20.1901 60.8596 18.4319 61.6846C16.6737 62.5096 14.7717 62.9221 12.7261 62.9221C9.22271 62.9221 6.22609 61.6575 3.73621 59.1284C1.2454 56.5994 0 53.55 0 49.9804C0 46.4556 1.25007 43.4188 3.75021 40.8702C6.25035 38.3215 9.2507 37.0471 12.7513 37.0471C14.7251 37.0471 16.5897 37.4452 18.3451 38.2412C20.1005 39.0363 21.5662 40.1642 22.742 41.6247L63.853 17.4632C63.5273 16.7679 63.3033 16.0442 63.181 15.292C63.0588 14.5408 62.9976 13.7242 62.9976 12.8423C62.9976 9.33143 64.2575 6.31334 66.7773 3.78801C69.2979 1.26267 72.3505 0 75.9351 0C79.4861 0 82.5182 1.2664 85.0314 3.79921C87.5446 6.33201 88.8012 9.36969 88.8012 12.9123C88.8012 16.4735 87.5376 19.5074 85.0104 22.0141C82.4832 24.5208 79.4473 25.7741 75.9029 25.7741C73.9123 25.7741 72.0748 25.3724 70.3903 24.5688C68.7058 23.7663 67.2653 22.6314 66.0689 21.1644L24.9566 45.2601C25.23 46.0132 25.4447 46.7864 25.6005 47.5796C25.7564 48.3738 25.8343 49.1722 25.8343 49.9748C25.8343 50.7783 25.7718 51.545 25.6467 52.2748C25.5207 53.0046 25.3285 53.7395 25.07 54.4795L66.1557 78.7138C67.3587 77.314 68.7954 76.1992 70.4659 75.3696C72.1373 74.5409 73.9636 74.1265 75.9449 74.1265C79.4931 74.1265 82.5228 75.4008 85.0342 77.9495C87.5455 80.4991 88.8012 83.5373 88.8012 87.064C88.8012 90.6616 87.5371 93.717 85.009 96.2302C82.4818 98.7434 79.4497 100 75.9127 100ZM75.9155 95.4589C78.3363 95.4589 80.3325 94.668 81.9041 93.0861C83.4747 91.5043 84.26 89.503 84.26 87.0821C84.26 84.6809 83.4621 82.6777 81.8663 81.0726C80.2705 79.4683 78.2929 78.6662 75.9337 78.6662C73.4784 78.6662 71.4654 79.4809 69.8947 81.1104C68.3232 82.7398 67.5374 84.7243 67.5374 87.064C67.5374 89.4988 68.3283 91.5066 69.9101 93.0875C71.492 94.6684 73.4938 95.4589 75.9155 95.4589ZM12.7905 58.3809C15.1889 58.3809 17.2056 57.59 18.8406 56.0082C20.4766 54.4263 21.2946 52.425 21.2946 50.0042C21.2946 47.602 20.4766 45.5989 18.8406 43.9946C17.2047 42.3904 15.1772 41.5883 12.7583 41.5883C10.4215 41.5883 8.46772 42.403 6.89708 44.0324C5.32645 45.6619 4.54113 47.6464 4.54113 49.986C4.54113 52.3536 5.33158 54.3447 6.91248 55.9592C8.49338 57.5737 10.4527 58.3809 12.7905 58.3809ZM75.9155 21.233C78.3363 21.233 80.3325 20.4421 81.9041 18.8602C83.4747 17.2793 84.26 15.2878 84.26 12.8857C84.26 10.4844 83.4621 8.49338 81.8663 6.91248C80.2705 5.33158 78.2929 4.54113 75.9337 4.54113C73.4784 4.54113 71.4654 5.33904 69.8947 6.93488C68.3232 8.53071 67.5374 10.5082 67.5374 12.8675C67.5374 15.3023 68.3283 17.3055 69.9101 18.877C71.492 20.4477 73.4938 21.233 75.9155 21.233Z" fill="currentColor"/>
</svg>
