<svg width="100" height="100" viewBox="0 0 100 100" fill="none" xmlns="http://www.w3.org/2000/svg">
<path d="M30.9816 69.0184H69.1192V30.8808H30.9816V69.0184ZM50.056 100C43.109 100 36.6062 98.6832 30.5476 96.0496C24.4881 93.416 19.1953 89.8375 14.6691 85.3141C10.1419 80.7907 6.56532 75.5077 3.93919 69.465C1.31306 63.4232 0 56.9297 0 49.9846C0 43.0805 1.3168 36.5847 3.95039 30.4972C6.58398 24.4097 10.1625 19.1103 14.6859 14.5991C19.2093 10.0878 24.4923 6.52705 30.535 3.91679C36.5768 1.30559 43.0703 0 50.0154 0C56.9195 0 63.4157 1.3126 69.5042 3.93779C75.5917 6.56299 80.8911 10.1261 85.4023 14.6271C89.9127 19.1271 93.4729 24.4153 96.0832 30.4916C98.6944 36.5679 100 43.0521 100 49.944C100 56.891 98.6911 63.3938 96.0734 69.4524C93.4547 75.5119 89.8917 80.7991 85.3841 85.3141C80.8766 89.8291 75.5847 93.4058 69.5084 96.044C63.4321 98.6813 56.9479 100 50.056 100ZM50.0406 95.4589C62.63 95.4589 73.3472 91.0353 82.1925 82.1883C91.0367 73.3402 95.4589 62.5973 95.4589 49.9594C95.4589 37.37 91.0447 26.6528 82.2163 17.8076C73.3878 8.96327 62.6514 4.54113 50.007 4.54113C37.3999 4.54113 26.6705 8.95533 17.8187 17.7837C8.967 26.6122 4.54113 37.3486 4.54113 49.993C4.54113 62.6001 8.96467 73.3295 17.8117 82.1813C26.6598 91.033 37.4027 95.4589 50.0406 95.4589Z" fill="currentColor"/>
</svg>
