<svg width="119" height="119" viewBox="0 0 119 119" fill="none" xmlns="http://www.w3.org/2000/svg">
<mask id="mask0_6_345" style="mask-type:alpha" maskUnits="userSpaceOnUse" x="0" y="0" width="119" height="119">
<rect width="119" height="119" fill="#D9D9D9"/>
</mask>
<g mask="url(#mask0_6_345)">
<path d="M42.6592 76.341H76.4304V42.5698H42.6592V76.341ZM59.5497 103.775C53.3981 103.775 47.6398 102.609 42.2749 100.277C36.9092 97.9453 32.2223 94.7765 28.2143 90.771C24.2055 86.7654 21.0384 82.0873 18.7129 76.7364C16.3875 71.3863 15.2247 65.6363 15.2247 59.4864C15.2247 53.3727 16.3908 47.6206 18.7228 42.2301C21.0549 36.8396 24.2237 32.1469 28.2292 28.1522C32.2347 24.1574 36.9129 21.0043 42.2638 18.6929C47.6138 16.3807 53.3638 15.2245 59.5138 15.2245C65.6274 15.2245 71.3799 16.3869 76.7713 18.7115C82.1618 21.0361 86.8545 24.1913 90.8492 28.177C94.8432 32.1618 97.9958 36.8445 100.307 42.2252C102.619 47.6058 103.776 53.3475 103.776 59.4504C103.776 65.602 102.617 71.3603 100.299 76.7252C97.9797 82.091 94.8246 86.7729 90.8331 90.771C86.8417 94.769 82.1556 97.9362 76.775 100.272C71.3944 102.608 65.6526 103.775 59.5497 103.775ZM59.5361 99.7542C70.6841 99.7542 80.1743 95.8371 88.0069 88.003C95.8385 80.168 99.7544 70.655 99.7544 59.464C99.7544 48.3161 95.8456 38.8258 88.0279 30.9933C80.2103 23.1616 70.7031 19.2458 59.5064 19.2458C48.3427 19.2458 38.8417 23.1546 31.0034 30.9722C23.1651 38.7899 19.2459 48.297 19.2459 59.4938C19.2459 70.6575 23.163 80.1585 30.9972 87.9968C38.8322 95.8351 48.3452 99.7542 59.5361 99.7542Z" fill="white"/>
</g>
</svg>
