<svg width="100" height="100" viewBox="0 0 100 100" fill="none" xmlns="http://www.w3.org/2000/svg">
<mask id="mask0_42_75" style="mask-type:alpha" maskUnits="userSpaceOnUse" x="0" y="0" width="100" height="100">
<rect width="100" height="100" fill="#D9D9D9"/>
</mask>
<g mask="url(#mask0_42_75)">
<path d="M41.7592 95.723C36.5946 95.723 31.7276 94.7428 27.1581 92.7823C22.5894 90.8219 18.6137 88.1549 15.231 84.7813C11.8484 81.407 9.1772 77.4435 7.21748 72.8907C5.25706 68.3379 4.27686 63.4865 4.27686 58.3365C4.27686 53.1712 5.25706 48.299 7.21748 43.7198C9.1779 39.1407 11.8508 35.1626 15.2362 31.7855C18.6216 28.4084 22.5966 25.7275 27.1612 23.7428C31.7251 21.758 36.6015 20.7657 41.7904 20.7657C42.0585 20.7657 42.3116 20.7705 42.5498 20.7803C42.788 20.7907 43.0692 20.8032 43.3935 20.8178V24.1761C43.0692 24.183 42.7901 24.1796 42.556 24.1657C42.3227 24.1511 42.0609 24.1438 41.7706 24.1438C32.2984 24.1438 24.2446 27.4678 17.6091 34.1157C10.9737 40.7629 7.65602 48.8316 7.65602 58.3219C7.65602 67.7421 10.9748 75.7674 17.6123 82.398C24.2498 89.0285 32.306 92.3438 41.781 92.3438C51.1866 92.3438 59.2171 89.0261 65.8727 82.3907C72.5282 75.7553 75.856 67.7362 75.856 58.3334H79.2341C79.2341 63.482 78.2418 68.3348 76.2571 72.8917C74.2723 77.4487 71.5859 81.4129 68.1977 84.7844C64.8095 88.1566 60.8473 90.8226 56.3112 92.7823C51.7744 94.7428 46.9237 95.723 41.7592 95.723ZM57.3394 76.2969L40.0144 58.9886V38.0167H43.3935V57.6698L59.705 74.0063L57.3394 76.2969ZM91.2967 47.5032C89.2855 38.0219 84.9196 29.8299 78.1987 22.9271C71.4786 16.0237 63.4602 11.4063 54.1435 9.07505V5.6438C64.4394 8.03616 73.2574 13.0115 80.5977 20.5698C87.9387 28.1289 92.6616 37.1066 94.7664 47.5032H91.2967ZM73.9133 47.5032C72.3105 42.6629 69.7887 38.4098 66.3477 34.7438C62.9074 31.0771 58.8394 28.3612 54.1435 26.5959V22.9875C59.7685 24.916 64.6494 28.0393 68.7862 32.3573C72.9223 36.6761 75.8289 41.7247 77.506 47.5032H73.9133Z" fill="#1C1B1F"/>
</g>
</svg>
