<svg class="icon-svg" width="50" height="50" viewBox="0 0 90 89" xmlns="http://www.w3.org/2000/svg">
    <path d="M45.029 89C38.8044 89 32.9481 87.8318 27.4601 85.4954C21.9721 83.1589 17.1981 79.9878 13.1379 75.9819C9.07862 71.9768 5.87435 67.2704 3.52511 61.8625C1.17504 56.4545 0 50.6766 0 44.5287C0 38.3732 1.18134 32.582 3.54401 27.155C5.90669 21.728 9.11347 17.007 13.1644 12.9919C17.2144 8.97774 21.9738 5.80908 27.4425 3.48594C32.9111 1.16198 38.754 0 44.971 0C51.1956 0 57.0519 1.16821 62.5399 3.50463C68.0279 5.84106 72.802 9.01221 76.8621 13.0181C80.9214 17.0232 84.1257 21.7296 86.4749 27.1376C88.825 32.5455 90 38.3234 90 44.4713C90 50.6268 88.8187 56.418 86.456 61.845C84.0933 67.272 80.8865 71.993 76.8356 76.0081C72.7856 80.0223 68.0262 83.1909 62.5575 85.5141C57.0889 87.838 51.246 89 45.029 89ZM39.8736 84.764V74.9055C37.0389 74.9055 34.6418 73.91 32.6823 71.9191C30.7227 69.9282 29.743 67.5391 29.743 64.7516V59.666L5.11381 35.303C4.8358 36.8412 4.59516 38.3724 4.3919 39.8965C4.18864 41.4206 4.08701 42.9589 4.08701 44.5112C4.08701 54.7689 7.47396 63.7292 14.2479 71.3921C21.0218 79.0559 29.5637 83.5132 39.8736 84.764ZM75.2041 71.8481C76.91 70.005 78.4323 68.0071 79.7711 65.8542C81.1091 63.7014 82.2401 61.4634 83.164 59.1402C84.0879 56.8171 84.777 54.4337 85.2314 51.9902C85.6858 49.5466 85.913 47.0545 85.913 44.5137C85.913 36.1464 83.6129 28.5205 79.0127 21.6358C74.4116 14.7511 68.1782 9.7668 60.3125 6.68285V8.99269C60.3125 11.805 59.3365 14.2033 57.3845 16.1876C55.4326 18.1718 53.0237 19.164 50.1579 19.164H39.8736V29.2917C39.8736 30.7427 39.3638 31.9412 38.3441 32.8872C37.3253 33.8341 36.1053 34.3075 34.6842 34.3075H24.5259V44.5H55.2679C56.7302 44.5 57.9363 45.0021 58.8863 46.0063C59.8371 47.0104 60.3125 48.2247 60.3125 49.6492V64.7467H65.4477C67.6986 64.7467 69.7258 65.397 71.5291 66.6977C73.3324 67.9975 74.5574 69.7143 75.2041 71.8481Z" fill="currentColor"/>
</svg>
