<svg width="131" height="131" viewBox="0 0 131 131" fill="none" xmlns="http://www.w3.org/2000/svg">
<mask id="mask0_6_375" style="mask-type:alpha" maskUnits="userSpaceOnUse" x="0" y="0" width="131" height="131">
<rect width="131" height="131" fill="#D9D9D9"/>
</mask>
<g mask="url(#mask0_6_375)">
<path d="M54.1753 84.45H58.602V46.55H54.1753V84.45ZM72.4962 84.45H76.9229V46.55H72.4962V84.45ZM65.5313 114.24C58.803 114.24 52.4786 112.957 46.5582 110.389C40.6377 107.822 35.4714 104.334 31.0592 99.9243C26.6462 95.5149 23.1597 90.3604 20.5997 84.4609C18.0397 78.5613 16.7598 72.2515 16.7598 65.5314C16.7598 58.7894 18.0434 52.4464 20.6106 46.5023C23.1779 40.559 26.6662 35.3886 31.0756 30.991C35.485 26.5934 40.6395 23.1224 46.5391 20.5779C52.4386 18.0325 58.7484 16.7598 65.4686 16.7598C72.2105 16.7598 78.5536 18.0393 84.4977 20.5984C90.4418 23.1574 95.6127 26.6307 100.01 31.0183C104.407 35.405 107.878 40.56 110.422 46.4832C112.967 52.4064 114.24 58.7348 114.24 65.4686C114.24 72.1969 112.964 78.5213 110.412 84.4418C107.86 90.3622 104.386 95.5285 99.9925 99.9407C95.5986 104.354 90.44 107.84 84.5168 110.4C78.5936 112.96 72.2651 114.24 65.5313 114.24ZM65.4931 109.813C77.7962 109.813 88.2589 105.501 96.8813 96.8772C105.503 88.2521 109.813 77.7953 109.813 65.5068C109.813 53.2037 105.505 42.741 96.8881 34.1187C88.2703 25.4972 77.8099 21.1865 65.5068 21.1865C53.2173 21.1865 42.7583 25.4949 34.1295 34.1118C25.5008 42.7296 21.1865 53.1901 21.1865 65.4932C21.1865 77.7826 25.4986 88.2417 34.1227 96.8704C42.7478 105.499 53.2046 109.813 65.4931 109.813Z" fill="white"/>
</g>
</svg>
