<svg class="icon-svg" width="50" height="50" viewBox="0 0 90 90" xmlns="http://www.w3.org/2000/svg">
    <!-- Contenido de sound_engine.svg -->
    <path d="M50.0395 72.1955C53.4344 72.1955 56.3111 71.0024 58.6696 68.6162C61.0281 66.2301 62.2073 63.3975 62.2073 60.1184H58.1203C58.1203 62.3165 57.3438 64.1975 55.7908 65.7614C54.2378 67.3261 52.3266 68.1085 50.0571 68.1085C48.3126 68.1085 46.7462 67.5928 45.3578 66.5614C43.9686 65.53 43.0115 64.2361 42.4866 62.6797C42.033 61.3863 41.4992 60.1289 40.8853 58.9077C40.2713 57.6865 39.5007 56.5862 38.5734 55.6068L31.7071 48.7809C30.1625 47.2833 28.9803 45.5363 28.1606 43.5398C27.3408 41.5433 26.931 39.5103 26.931 37.4408C26.931 33.0749 28.4483 29.3768 31.4829 26.3464C34.5166 23.316 38.1824 21.8008 42.4803 21.8008C46.3388 21.8008 49.714 23.0191 52.6058 25.4557C55.4985 27.8922 57.2972 30.9596 58.0019 34.6577H62.0813C61.4573 29.7946 59.2865 25.7551 55.569 22.5391C51.8508 19.3222 47.4878 17.7138 42.4803 17.7138C36.994 17.7138 32.3497 19.6166 28.5474 23.4222C24.7451 27.2279 22.8439 31.9045 22.8439 37.4521C22.8439 40.1256 23.3588 42.6923 24.3885 45.1524C25.4174 47.6126 26.889 49.7934 28.8031 51.695L35.643 58.5713C36.3266 59.2827 36.9116 60.0945 37.398 61.0066C37.8843 61.9188 38.292 62.8687 38.6213 63.8565C39.4318 66.377 40.8995 68.397 43.0245 69.9164C45.1503 71.4358 47.4887 72.1955 50.0395 72.1955ZM52.5592 52.0376C53.8544 52.0376 54.9462 51.5807 55.8349 50.6669C56.7235 49.7539 57.1678 48.7049 57.1678 47.5197C57.1678 46.2246 56.7235 45.1327 55.8349 44.2441C54.9462 43.3555 53.8426 42.9111 52.5239 42.9111C51.3649 42.9111 50.328 43.3555 49.4133 44.2441C48.4987 45.1327 48.0413 46.2364 48.0413 47.555C48.0413 48.7141 48.4982 49.751 49.4121 50.6656C50.325 51.5803 51.3741 52.0376 52.5592 52.0376ZM45.029 90C38.817 90 32.9779 88.8149 27.5118 86.4447C22.0456 84.0744 17.2757 80.8538 13.2022 76.7827C9.12775 72.7117 5.90879 67.9527 3.54527 62.5059C1.18176 57.0591 0 51.2334 0 45.029C0 38.8044 1.18512 32.9481 3.55535 27.4601C5.92558 21.973 9.14623 17.1993 13.2173 13.1392C17.2883 9.07903 22.0473 5.87435 27.4941 3.52511C32.941 1.17504 38.7666 0 44.971 0C51.1956 0 57.0519 1.18134 62.5399 3.54401C68.0279 5.90669 72.802 9.11347 76.8621 13.1644C80.9214 17.2144 84.1257 21.9738 86.4749 27.4425C88.825 32.9111 90 38.754 90 44.971C90 51.183 88.822 57.0221 86.4661 62.4882C84.1093 67.9544 80.9025 72.7243 76.8457 76.7978C72.7889 80.8723 68.0262 84.0912 62.5575 86.4547C57.0889 88.8182 51.246 90 45.029 90ZM44.9937 85.913C56.3527 85.913 66.0125 81.9318 73.9732 73.9694C81.9331 66.0062 85.913 56.3518 85.913 45.0063C85.913 33.6473 81.9352 23.9875 73.9795 16.0268C66.023 8.06695 56.3653 4.08702 45.0063 4.08702C33.6599 4.08702 24.0034 8.06484 16.0369 16.0205C8.0703 23.977 4.08701 33.6347 4.08701 44.9937C4.08701 56.3401 8.0682 65.9966 16.0306 73.9631C23.9938 81.9297 33.6482 85.913 44.9937 85.913Z" fill="currentColor"/>
</svg>
