<svg class="icon-svg" width="50" height="50" viewBox="0 0 83 64" xmlns="http://www.w3.org/2000/svg">
    <!-- Contenido de track.svg -->
    <path d="M4.71656 35.8838C3.12094 33.4063 1.94125 30.9069 1.1775 28.3856C0.414375 25.865 0.0328124 23.3588 0.0328124 20.8669C0.0328124 15.0938 2.06719 10.1725 6.13594 6.10313C10.2053 2.03438 15.1222 0 20.8866 0C24.6559 0 28.2716 0.984689 31.7334 2.95406C35.1953 4.92281 38.3344 7.72969 41.1506 11.3747C43.9669 7.72969 47.1059 4.92281 50.5678 2.95406C54.0297 0.984689 57.6453 0 61.4147 0C67.1791 0 72.0959 2.03438 76.1653 6.10313C80.2341 10.1725 82.2684 15.0941 82.2684 20.8678C82.2684 23.2134 81.8903 25.635 81.1341 28.1325C80.3785 30.63 79.2022 33.1828 77.6053 35.7909C77.2116 35.4266 76.7916 35.1172 76.3453 34.8628C75.8991 34.6091 75.4503 34.3913 74.9991 34.2094C76.4053 31.8463 77.4616 29.5669 78.1678 27.3713C78.8741 25.175 79.2272 23.0106 79.2272 20.8781C79.2272 15.8994 77.4991 11.6819 74.0428 8.22563C70.5866 4.76938 66.3725 3.04125 61.4006 3.04125C58.2931 3.04125 55.0444 4.03657 51.6544 6.02719C48.265 8.01844 44.7638 11.3788 41.1506 16.1081C37.5375 11.3844 34.0363 8.02563 30.6469 6.03188C27.2569 4.03813 24.0081 3.04125 20.9006 3.04125C15.9288 3.04125 11.7147 4.76938 8.25844 8.22563C4.80219 11.6819 3.07406 15.8909 3.07406 20.8528C3.07406 23.0528 3.42438 25.2797 4.125 27.5334C4.82563 29.7878 5.8675 32.0303 7.25063 34.2609C6.8075 34.5341 6.36656 34.7972 5.92781 35.0503C5.48906 35.3034 5.08531 35.5813 4.71656 35.8838ZM0 63.7622V60.8447C0 58.6916 1.18656 56.8828 3.55969 55.4184C5.93219 53.9534 9.01594 53.221 12.8109 53.221C13.5497 53.221 14.2522 53.2547 14.9184 53.3222C15.5841 53.3897 16.205 53.4669 16.7813 53.5538C16.3581 54.4225 16.0344 55.3428 15.81 56.3147C15.5856 57.286 15.4734 58.2875 15.4734 59.3194V63.7622H0ZM22.5 63.7622V59.5753C22.5 56.5447 24.2253 54.115 27.6759 52.2863C31.1272 50.4575 35.6288 49.5431 41.1806 49.5431C46.7631 49.5431 51.2734 50.4575 54.7116 52.2863C58.1491 54.115 59.8678 56.5447 59.8678 59.5753V63.7622H22.5ZM66.8353 63.7622V59.3194C66.8353 58.2875 66.7316 57.286 66.5241 56.3147C66.3159 55.3428 66.0056 54.4225 65.5931 53.5538C66.1956 53.4669 66.8319 53.3897 67.5019 53.3222C68.1725 53.2547 68.86 53.221 69.5644 53.221C73.4175 53.221 76.5147 53.9534 78.8559 55.4184C81.1972 56.8828 82.3678 58.6916 82.3678 60.8447V63.7622H66.8353ZM41.16 52.5844C36.5081 52.5844 32.7213 53.235 29.7994 54.5363C26.8775 55.8381 25.4453 57.5794 25.5028 59.76V60.721H56.8734V59.745C56.9259 57.5744 55.5016 55.8381 52.6003 54.5363C49.6997 53.235 45.8863 52.5844 41.16 52.5844ZM12.8184 49.8441C11.4328 49.8441 10.2603 49.356 9.30094 48.3797C8.34094 47.4034 7.86094 46.2225 7.86094 44.8369C7.86094 43.4769 8.34438 42.3228 9.31125 41.3747C10.2781 40.4259 11.4478 39.9516 12.8203 39.9516C14.1672 39.9516 15.3381 40.4294 16.3331 41.385C17.3275 42.3406 17.8247 43.4919 17.8247 44.8388C17.8247 46.2113 17.3303 47.3884 16.3416 48.3703C15.3528 49.3528 14.1784 49.8441 12.8184 49.8441ZM69.5738 49.8441C68.2181 49.8441 67.0528 49.356 66.0778 48.3797C65.1034 47.4034 64.6163 46.2225 64.6163 44.8369C64.6163 43.4769 65.1069 42.3228 66.0881 41.3747C67.07 40.4259 68.2372 39.9516 69.5897 39.9516C70.9747 39.9516 72.1528 40.4294 73.1241 41.385C74.0947 42.3406 74.58 43.4919 74.58 44.8388C74.58 46.2113 74.1006 47.3884 73.1419 48.3703C72.1831 49.3528 70.9938 49.8441 69.5738 49.8441ZM41.1769 46.5984C38.9175 46.5984 36.9947 45.8075 35.4084 44.2256C33.8222 42.6438 33.0291 40.7075 33.0291 38.4169C33.0291 36.1075 33.8206 34.1753 35.4038 32.6203C36.9875 31.0659 38.9103 30.2888 41.1722 30.2888C43.4516 30.2888 45.3825 31.0647 46.965 32.6166C48.5481 34.1691 49.3397 36.1006 49.3397 38.4113C49.3397 40.6763 48.5553 42.6072 46.9866 44.2041C45.4178 45.8003 43.4813 46.5984 41.1769 46.5984ZM41.1506 33.3291C39.7394 33.3291 38.54 33.8194 37.5525 34.8C36.5644 35.7806 36.0703 36.9841 36.0703 38.4103C36.0703 39.8453 36.5644 41.0619 37.5525 42.06C38.54 43.0588 39.7531 43.5581 41.1919 43.5581C42.5988 43.5581 43.8016 43.0588 44.8003 42.06C45.7991 41.0619 46.2984 39.8253 46.2984 38.3503C46.2984 36.9797 45.8041 35.8003 44.8153 34.8122C43.8259 33.8234 42.6044 33.3291 41.1506 33.3291Z" fill="currentColor"/>
</svg>
